<svg width="24" height="23" viewBox="0 0 24 23" fill="none" xmlns="http://www.w3.org/2000/svg">
<path d="M23 1H19L16.32 14.39C16.2286 14.8504 15.9781 15.264 15.6125 15.5583C15.2468 15.8526 14.7893 16.009 14.32 16H4.6C4.1307 16.009 3.67318 15.8526 3.30754 15.5583C2.94191 15.264 2.69145 14.8504 2.6 14.39L1 6H18M14 21C14 21.5523 14.4477 22 15 22C15.5523 22 16 21.5523 16 21C16 20.4477 15.5523 20 15 20C14.4477 20 14 20.4477 14 21ZM3 21C3 21.5523 3.44772 22 4 22C4.55228 22 5 21.5523 5 21C5 20.4477 4.55228 20 4 20C3.44772 20 3 20.4477 3 21Z" stroke="#17183B" stroke-width="2" stroke-linecap="round" stroke-linejoin="round"/>
</svg>
